<?xml version="1.0" encoding="UTF-8"?>
<svg width="25px" height="25px" viewBox="0 0 25 25" version="1.1" xmlns="http://www.w3.org/2000/svg" xmlns:xlink="http://www.w3.org/1999/xlink">
    <!-- Generator: Sketch 61.2 (89653) - https://sketch.com -->
    <title>instagram@2x</title>
    <desc>Created with Sketch.</desc>
    <g id="Page-1" stroke="none" stroke-width="1" fill="none" fill-rule="evenodd">
        <g id="footer_responsive" transform="translate(-218.000000, -122.000000)" fill="#8C97AD">
            <g id="redes" transform="translate(55.000000, 122.000000)">
                <path d="M176.243473,0.000620278259 C178.480618,0.00431013284 178.938337,0.0215426253 180.054586,0.072475691 C181.339976,0.131148742 182.217771,0.335258098 182.985937,0.633800387 C183.780037,0.942409131 184.453483,1.35532552 185.124819,2.02666219 C185.796156,2.69799886 186.209072,3.37144468 186.517681,4.16554416 C186.816223,4.93371054 187.020333,5.8115054 187.079006,7.09689581 C187.131898,8.25607685 187.148447,8.70509826 187.151228,11.1741763 L187.151228,12.9773525 C187.148447,15.4464305 187.131898,15.8954519 187.079006,17.0546329 C187.020333,18.3400234 186.816223,19.2178182 186.517681,19.9859846 C186.209072,20.7800841 185.796156,21.4535299 185.124819,22.1248666 C184.453483,22.7962032 183.780037,23.2091196 182.985937,23.5177284 C182.217771,23.8162707 181.339976,24.02038 180.054586,24.0790531 C178.895405,24.1319451 178.446383,24.1484555 175.977305,24.1512287 L174.17413,24.1512287 C171.70506,24.1484555 171.256073,24.1319451 170.096848,24.0790531 C168.811458,24.02038 167.933663,23.8162707 167.165497,23.5177284 C166.371397,23.2091196 165.697952,22.7962032 165.026615,22.1248666 C164.355278,21.4535299 163.942362,20.7800361 163.633753,19.9859846 C163.335211,19.2178182 163.131101,18.3400234 163.072428,17.0546329 C163.021495,15.9383845 163.004299,15.4806655 163.000619,13.2435202 L163.000619,10.9080086 C163.004299,8.67086326 163.021495,8.21314422 163.072428,7.09689581 C163.131101,5.8115054 163.335211,4.93371054 163.633753,4.16554416 C163.942362,3.37144468 164.355278,2.69799886 165.026615,2.02666219 C165.697952,1.35532552 166.371397,0.942409131 167.165497,0.633800387 C167.933663,0.335258098 168.811458,0.131148742 170.096848,0.072475691 C171.213138,0.0215426253 171.670827,0.00431013284 173.907963,0.000620278259 Z M175.683809,2.17586722 L174.467625,2.17586722 C171.796405,2.17753353 171.384492,2.19183833 170.195979,2.24606297 C169.018635,2.29979866 168.379224,2.49652595 167.9537,2.66185549 C167.390027,2.88092072 166.987704,3.14264855 166.565153,3.56519997 C166.142601,3.9877514 165.880873,4.39007404 165.661856,4.95369964 C165.496479,5.37927101 165.299751,6.01868263 165.246016,7.19607436 C165.191791,8.38454239 165.177486,8.79645278 165.17582,11.4676725 L165.17582,12.6838563 C165.177486,15.3550762 165.191791,15.7669896 165.246016,16.9555023 C165.299751,18.1328461 165.496479,18.7722578 165.661856,19.1978291 C165.880873,19.7614547 166.142601,20.1637774 166.565153,20.5863288 C166.987704,21.0088802 167.390027,21.270608 167.9537,21.4896253 C168.379224,21.6550028 169.018635,21.8517301 170.196027,21.9054658 C171.299438,21.9558172 171.733411,21.971748 173.928629,21.9751011 L176.222805,21.9751011 C178.418023,21.971748 178.851996,21.9558172 179.955407,21.9054658 C181.132799,21.8517301 181.77221,21.6550028 182.197782,21.4896253 C182.761407,21.270608 183.16373,21.0088802 183.586281,20.5863288 C184.008833,20.1637774 184.270561,19.7614547 184.489578,19.1978291 C184.654955,18.7722578 184.851683,18.1328461 184.905418,16.9554544 C184.95577,15.8518769 184.971701,15.4178824 184.975054,13.2227856 L184.975054,10.9287431 C184.971701,8.73364555 184.95577,8.29964543 184.905418,7.19602643 C184.851683,6.01868263 184.654955,5.37927101 184.489578,4.95369964 C184.270561,4.39007404 184.008833,3.9877514 183.586281,3.56519997 C183.16373,3.14264855 182.761407,2.88092072 182.197782,2.66185549 C181.77221,2.49652595 181.132799,2.29979866 179.955407,2.24606297 C178.766939,2.19183833 178.355029,2.17753353 175.683809,2.17586722 Z M175.075717,5.87458852 C178.500517,5.87458852 181.276893,8.6509647 181.276893,12.0757644 C181.276893,15.5005641 178.500517,18.2769402 175.075717,18.2769402 C171.650917,18.2769402 168.874541,15.5005641 168.874541,12.0757644 C168.874541,8.6509647 171.650917,5.87458852 175.075717,5.87458852 Z M175.075717,8.05042877 C172.852612,8.05042877 171.050381,9.85265973 171.050381,12.0757644 C171.050381,14.298869 172.852612,16.1011 175.075717,16.1011 C177.298822,16.1011 179.101053,14.298869 179.101053,12.0757644 C179.101053,9.85265973 177.298822,8.05042877 175.075717,8.05042877 Z M181.561031,4.02260051 C182.382979,4.02260051 183.04926,4.68888198 183.04926,5.51082934 C183.04926,6.33277669 182.382979,6.9991074 181.561031,6.9991074 C180.739084,6.9991074 180.072753,6.33277669 180.072753,5.51082934 C180.072753,4.68888198 180.739084,4.02260051 181.561031,4.02260051 Z" id="instagram"></path>
            </g>
        </g>
    </g>
</svg>