<svg xmlns="http://www.w3.org/2000/svg" viewBox="0 0 60.51 69.87"><defs><style>.cls-1{fill:#ff931e;}.cls-2{fill:#181818;}</style></defs><g id="Capa_2" data-name="Capa 2"><g id="pc"><polygon class="cls-1" points="60.51 52.4 60.51 17.47 30.25 0 0 17.47 0 52.4 30.25 69.87 60.51 52.4"/><path class="cls-2" d="M28.56,49.37c-.33,0-.65-.07-1-.12a11.47,11.47,0,0,1-8.85-6.36,10.75,10.75,0,0,1-1.17-5.31,9.4,9.4,0,0,1,.66-2.9,36.44,36.44,0,0,1,3-6.12C23.31,25,25.65,21.48,28,18a2.81,2.81,0,0,1,.61-.63.91.91,0,0,1,1.29.1,2.15,2.15,0,0,1,.4.45c2.35,3.44,4.7,6.89,6.8,10.49a40.92,40.92,0,0,1,3,6.2,9.94,9.94,0,0,1-.38,8,11.26,11.26,0,0,1-4.94,5.31,11.55,11.55,0,0,1-4.7,1.4l-.31,0Z"/></g></g></svg>