<svg xmlns="http://www.w3.org/2000/svg" viewBox="0 0 32.31 32.31"><defs><style>.cls-1{fill:#fff;}</style></defs><g id="Capa_2" data-name="Capa 2"><g id="pc"><path class="cls-1" d="M16.16,32.3c-2.33,0-4.66,0-7,0A9.19,9.19,0,0,1,0,23.05V9.25A9.2,9.2,0,0,1,9.26,0H23A9.19,9.19,0,0,1,32.3,9.32q0,6.86,0,13.71a9.19,9.19,0,0,1-9.19,9.27C20.8,32.32,18.48,32.3,16.16,32.3ZM2.77,16.1c0,2.32,0,4.63,0,7a6.41,6.41,0,0,0,6.47,6.48h13.8a6.4,6.4,0,0,0,6.48-6.48V9.3A6.4,6.4,0,0,0,23,2.78H9.3A6.4,6.4,0,0,0,2.78,9.3C2.77,11.57,2.77,13.83,2.77,16.1Z"/><path class="cls-1" d="M7.88,16.09a8.28,8.28,0,1,1,8.29,8.34A8.29,8.29,0,0,1,7.88,16.09Zm8.23,5.56A5.5,5.5,0,1,0,10.65,16,5.52,5.52,0,0,0,16.11,21.65Z"/><path class="cls-1" d="M24.76,5.43a2,2,0,1,1-2,2A2,2,0,0,1,24.76,5.43Z"/></g></g></svg>