<svg xmlns="http://www.w3.org/2000/svg" viewBox="0 0 64.92 73.26"><defs><style>.cls-1{fill:#ef3c42;}.cls-2{fill:#fff;}.cls-3{fill:#fbb031;}</style></defs><g id="Capa_2" data-name="Capa 2"><g id="pc"><path id="path159407" d="M32.07,33.93l-5,1.93,8.22-12.52,20.87-6.92-5.6,6.74,7-2.45L23.32,56Z"/><path id="polyline159409" class="cls-1" d="M51.49,19.12l-5.65,6.8L52,23.81,27.05,49.48l7.09-17.87-4,1.54L36,24.27Z"/><path id="path159411" class="cls-2" d="M47.73,32.81,35,45.88H46.83v10a16.49,16.49,0,0,1-7.32,1.57,19.3,19.3,0,0,1-11.95-4L20,61.07l4.22-10.86A23.58,23.58,0,0,1,20,36.68c0-11.08,7.52-19.24,17.87-19.24a20,20,0,0,1,7.24,1.24L59.75,13.9l-5.17,6.48,7.87-2.82-5.76,5.91h7V0H52.63V3.47A40.54,40.54,0,0,0,38,.92C15.89.92,0,16.29,0,37.83c0,20.9,15.26,35.43,37.22,35.43a47.89,47.89,0,0,0,27.7-8.36V32.81Z"/><path id="polygon159413" class="cls-3" d="M28.67,45.4,48.41,25l-5.55,1.89,5.65-6.82L35.94,24.27l-4.26,6.49L35,29.52Z"/></g></g></svg>