<svg xmlns="http://www.w3.org/2000/svg" viewBox="0 0 270.4 52.37"><defs><style>.cls-1{fill:#fff;}</style></defs><g id="Capa_2" data-name="Capa 2"><g id="pc"><path class="cls-1" d="M49.87,0c0,.53,0,1.05,0,1.58q0,24.28,0,48.57c0,1-.23,1.28-1.26,1.27q-23.81,0-47.6,0c-.35,0-.7,0-1-.06Q0,26.12,0,.86C0,.14.14,0,.87,0Q25.37,0,49.87,0ZM17.71,50.07c5.07,0,10.13,0,15.2,0,.67,0,1-.17,1.15-.86a27.3,27.3,0,0,0,.41-10.84c-2.4-14.74-17.58-24.55-32-20.71-.69.18-.95.43-.95,1.19q0,15.08,0,30.17c0,.81.19,1.07,1,1.06C7.58,50.05,12.65,50.07,17.71,50.07ZM30.39,19.61A45.92,45.92,0,0,0,30,11.75a7.88,7.88,0,0,0-2.42-5.33,6.53,6.53,0,0,0-8.9.21,6.66,6.66,0,0,0-.15,9.31c3.21,3.36,7.14,5.78,11.12,8.12.56.33.75.13.75-.45C30.39,22.27,30.39,20.94,30.39,19.61Zm1.88.33v3.67c0,.57.17.78.74.44a52,52,0,0,0,11-8,6.57,6.57,0,0,0,1.08-7.69,6.24,6.24,0,0,0-6.61-3.48A6.54,6.54,0,0,0,33,10,41.24,41.24,0,0,0,32.27,19.94Z"/><path class="cls-1" d="M135.94,29.93c.86-3.1,3.17-3.93,5.95-4,2.46-.05,4.93,0,7.39-.05.57,0,.71.2.71.73q0,12,0,24.09c0,.55-.2.73-.74.72-1.47,0-2.95,0-4.43,0-.78,0-.92-.29-.92-1,0-5.79,0-11.57,0-17.36,0-1.35-.07-1.41-1.43-1.3-2,.18-3.37,1.76-3.47,4.11s0,4.62,0,6.94c0,2.56,0,5.12,0,7.67,0,.77-.19,1.06-1,1-1.48-.06-3-.06-4.43,0-.79,0-1-.22-1-1,0-4.38,0-8.76,0-13.14a9.57,9.57,0,0,0-.29-2.82,3.7,3.7,0,0,0-3.63-2.8c-.85,0-1.06.27-1.06,1.09,0,5.75,0,11.5,0,17.25,0,1.06-.25,1.41-1.33,1.32-1.3-.1-2.61,0-3.91,0-.6,0-.87-.12-.87-.8q0-12,0-24c0-.41,0-.77.58-.75,2.81.06,5.62-.09,8.44.12C133.09,26.21,135.08,27.17,135.94,29.93Z"/><path class="cls-1" d="M270.4,39.14A13,13,0,1,1,257.49,25.9,13.19,13.19,0,0,1,270.4,39.14ZM251.12,39a6.45,6.45,0,0,0,6.29,6.67,6.62,6.62,0,0,0,0-13.23A6.46,6.46,0,0,0,251.12,39Z"/><path class="cls-1" d="M221,39.13a13,13,0,1,1-12.9-13.23A13.13,13.13,0,0,1,221,39.13ZM201.71,39a6.35,6.35,0,1,0,12.7.16,6.57,6.57,0,0,0-6.29-6.73A6.5,6.5,0,0,0,201.71,39Z"/><path class="cls-1" d="M99.35,38.59c0-3.89,0-7.78,0-11.67,0-.85.25-1.06,1.07-1,3.23.12,6.47-.18,9.69.22,4.18.53,7.4,3,8.12,6.45a10.64,10.64,0,0,1-1.82,9.06c-.17.22-.58.44-.15.77,1.67,1.27,1.89,3.11,2,5,0,1.12,0,2.24,0,3.36,0,.49-.17.68-.68.68-1.47,0-3,0-4.43,0-.58,0-.71-.25-.7-.76,0-.81,0-1.62,0-2.42a3.63,3.63,0,0,0-3.83-3.62c-1,0-2.44-.36-3.06.17s-.19,2-.23,3.12,0,1.89,0,2.83c0,.5-.18.68-.67.68-1.52,0-3,0-4.54,0-.79,0-.71-.47-.71-1C99.36,46.5,99.35,42.55,99.35,38.59Zm5.92-3c0,1,0,2,0,3,0,.51.1.79.7.76,1,0,2,0,3,0A3.7,3.7,0,0,0,112.56,36a3.77,3.77,0,0,0-2.94-4.05,14.5,14.5,0,0,0-3.78-.24c-.56,0-.57.37-.57.78Z"/><path class="cls-1" d="M95.13,38.69c0,3.93,0,7.86,0,11.78,0,.72-.17,1-.93,1-1.37-.06-2.75-.06-4.12,0-.72,0-1-.16-1-.92.05-1.65,0-3.3,0-4.95,0-.76-.24-.94-1-.92-1.62,0-3.24.06-4.85,0-.86,0-1.18.17-1.14,1.08.08,1.57,0,3.16,0,4.73,0,.82-.25,1-1,1-1.48-.06-3,0-4.44,0-.42,0-.75,0-.73-.59.12-4.66-.33-9.34.22-14a12.37,12.37,0,0,1,12.51-11c1.73,0,3.46.07,5.18,0,1-.06,1.19.33,1.18,1.24C95.1,31,95.13,34.83,95.13,38.69Zm-6-3.1c0-1-.05-1.9,0-2.84,0-.76-.15-1.07-1-1-3.34.28-6.38,2.25-5.8,7.14.05.44.25.51.61.5,1.83,0,3.66,0,5.49,0,.6,0,.68-.27.67-.77C89.13,37.62,89.15,36.6,89.15,35.59Z"/><path class="cls-1" d="M173.45,38.62c0,3.93,0,7.86,0,11.78,0,.86-.27,1.07-1.07,1-1.37-.06-2.75,0-4.12,0-.66,0-.85-.22-.83-.85,0-1.68,0-3.37,0-5,0-.69-.22-.91-.91-.89-1.73,0-3.45,0-5.18,0-.65,0-.85.17-.84.83,0,1.68,0,3.36,0,5.05,0,.64-.11.94-.86.92-1.51-.06-3,0-4.54,0-.58,0-.8-.17-.79-.77,0-4.28-.16-8.57.09-12.84A12.39,12.39,0,0,1,167,25.9c1.86,0,3.73,0,5.59,0,.77,0,.93.24.92,1C173.43,30.77,173.45,34.69,173.45,38.62Zm-6-3c0-1,0-2,0-3,0-.55-.11-.8-.75-.81a6,6,0,0,0-6.08,7.19c.08.44.33.45.66.45,1.83,0,3.65,0,5.48,0,.59,0,.7-.26.68-.76C167.44,37.63,167.46,36.61,167.46,35.6Z"/><path class="cls-1" d="M223.22,38.58c0-3.86,0-7.71,0-11.57,0-.84.16-1.17,1.09-1.13,2.63.14,5.28-.23,7.9.2a12,12,0,0,1,9.93,8.09,12.24,12.24,0,0,1-2.31,12.88A12,12,0,0,1,230,51.41c-1.8,0-3.59,0-5.39,0-1.34,0-1.34,0-1.34-1.37Zm6,.12v4.94c0,2.07,0,2.07,2.07,1.84a6.93,6.93,0,0,0,5.91-7.56,7,7,0,0,0-7-6.1c-.72,0-1,.27-1,1C229.28,34.79,229.25,36.74,229.25,38.7Z"/><path class="cls-1" d="M56.26,38.64c0-3.93,0-7.85,0-11.78,0-.77.18-1,1-1,5.7,0,11.4,0,17.1,0,.75,0,1,.24.93,1,0,1.4-.06,2.8,0,4.2,0,.75-.23.95-1,.94-3.48,0-7,0-10.45,0-1,0-1.43.18-1.3,1.25s-.39,2.24.19,2.84,1.93.18,2.94.2c2,0,4,0,6,0,.6,0,.78.18.77.78,0,1.43,0,2.87,0,4.31,0,.65-.18.83-.83.82-2.68,0-5.35,0-8,0-.81,0-1.09.17-1.07,1,.06,2.49,0,5,0,7.47,0,.61-.14.87-.82.85-1.55,0-3.1,0-4.64,0-.74,0-.88-.27-.88-.92C56.27,46.56,56.26,42.6,56.26,38.64Z"/><path class="cls-1" d="M185.67,25.9c3.23,0,6.47,0,9.7,0,.74,0,1,.19.94.93-.05,1.23-.05,2.46,0,3.68,0,.72-.24.89-.9.87-1.76,0-3.52,0-5.28,0-.83,0-1.06.21-1,1.05,0,5.92,0,11.84,0,17.76,0,1.12-.34,1.36-1.36,1.29a30.29,30.29,0,0,0-3.69,0c-.82,0-1-.27-1-1,0-6,0-11.92,0-17.87,0-1-.25-1.25-1.22-1.21-2,.07-4,0-6,0-.6,0-.8-.17-.78-.77,0-1.3,0-2.59,0-3.89,0-.66.2-.83.84-.82C179.19,25.92,182.43,25.9,185.67,25.9Z"/><path class="cls-1" d="M28.21,27.11a41.74,41.74,0,0,1-5.6,2.65,30.1,30.1,0,0,1-8.14,2.49A6.68,6.68,0,0,1,7.4,26.83a6.4,6.4,0,0,1,8.13-7.09,31,31,0,0,1,7.77,4A47.16,47.16,0,0,1,28.21,27.11Z"/><path class="cls-1" d="M28.56,30.58a62.09,62.09,0,0,1-1.72,10.86A6.63,6.63,0,0,1,16.5,45,6.22,6.22,0,0,1,16,35.91a23.08,23.08,0,0,1,5.55-3.78c1.91-1,3.87-2,5.83-2.93,1.16-.56,1.18-.54,1.14.75Z"/></g></g></svg>