<svg xmlns="http://www.w3.org/2000/svg" viewBox="0 0 63.4 73.21"><defs><style>.cls-1{fill:#ff931e;}.cls-2{fill:#181818;}</style></defs><g id="Capa_2" data-name="Capa 2"><g id="pc"><polygon class="cls-1" points="63.4 54.91 63.4 18.3 31.7 0 0 18.3 0 54.91 31.7 73.21 63.4 54.91"/><path class="cls-2" d="M41.86,31.09A1.75,1.75,0,0,0,40.19,30h-4l5-7.83a1.82,1.82,0,0,0,.16-1.92,1.78,1.78,0,0,0-1.72-.95h0c-2.73,0-5.47,0-8.2,0h0a2,2,0,0,0-1.83,1.14L21.65,36.2a1.77,1.77,0,0,0,1.68,2.7h3.46L21.63,51.16a1.81,1.81,0,0,0,.66,2.49l.31.22h1.21l.53-.52a5.32,5.32,0,0,0,.47-.48L41.55,33A1.76,1.76,0,0,0,41.86,31.09Z"/></g></g></svg>