<svg xmlns="http://www.w3.org/2000/svg" viewBox="0 0 62.98 72.72"><defs><style>.cls-1{fill:#ff931e;}.cls-2{fill:#181818;}</style></defs><g id="Capa_2" data-name="Capa 2"><g id="pc"><polygon class="cls-1" points="62.98 54.54 62.98 18.18 31.49 0 0 18.18 0 54.54 31.49 72.72 62.98 54.54"/><path class="cls-2" d="M27.53,40.28h-8a4,4,0,0,1-3.91-3.05A3.92,3.92,0,0,1,18,32.74a4.22,4.22,0,0,1,1.61-.3h7.9V24.56a4,4,0,0,1,7.89-.62,4.3,4.3,0,0,1,0,.62v7.75s0,.08,0,.13h7.95a4,4,0,0,1,3.89,3,3.91,3.91,0,0,1-2.15,4.47,4.15,4.15,0,0,1-1.73.38h-8v7.89a4,4,0,1,1-7.92,0c0-2.52,0-5,0-7.56Z"/></g></g></svg>