<svg xmlns="http://www.w3.org/2000/svg" viewBox="0 0 30.35 30.95"><defs><style>.cls-1{fill:#fff;}</style></defs><g id="Capa_2" data-name="Capa 2"><g id="pc"><path class="cls-1" d="M0,0H1.77C4.08,0,6.39,0,8.7,0a.69.69,0,0,1,.5.22c2,2.81,3.88,5.63,5.83,8.45l1.8,2.62c.57-.64,1.12-1.25,1.66-1.87l6.64-7.67c.46-.52.91-1.06,1.38-1.57A.62.62,0,0,1,26.9,0c.83,0,1.65,0,2.52,0L27,2.78q-3.4,3.92-6.8,7.82c-.65.74-1.31,1.48-2,2.21-.18.19-.16.32,0,.52L27.67,27c.89,1.29,1.76,2.58,2.68,3.92h-.7c-2.66,0-5.32,0-8,0a.76.76,0,0,1-.71-.38L13.24,19.26,13.06,19c-.82.93-1.62,1.82-2.4,2.73-2.51,2.9-5,5.8-7.5,8.72a1.17,1.17,0,0,1-1.1.49c-.66-.05-1.32,0-2.06,0L11.83,17.27ZM3.82,2c0,.06,0,.08,0,.09Q7.59,7.52,11.36,13L22.41,28.81a.49.49,0,0,0,.33.2h3.83a2.34,2.34,0,0,0-.15-.25l-3.2-4.61L12.33,8.48Q10.17,5.38,8,2.28A.7.7,0,0,0,7.53,2C6.3,2,5.07,2,3.82,2Z"/></g></g></svg>