<?xml version="1.0" standalone="no"?>
<!DOCTYPE svg PUBLIC "-//W3C//DTD SVG 20010904//EN"
 "http://www.w3.org/TR/2001/REC-SVG-20010904/DTD/svg10.dtd">
<svg version="1.0" xmlns="http://www.w3.org/2000/svg"
 width="100.000000pt" height="100.000000pt" viewBox="0 0 100.000000 100.000000"
 preserveAspectRatio="xMidYMid meet">

<g transform="translate(0.000000,100.000000) scale(0.100000,-0.100000)"
fill="#000000" stroke="none">
<path d="M205 990 c-84 -14 -155 -39 -182 -66 l-23 -23 0 -335 0 -334 30 -26
c37 -30 113 -55 195 -62 106 -9 105 -9 105 -57 0 -23 7 -53 16 -65 15 -22 16
-22 319 -22 263 0 306 2 319 16 14 13 16 47 16 219 0 250 10 235 -157 235
l-113 0 0 218 c0 196 -2 221 -17 234 -29 25 -74 45 -133 58 -72 16 -299 21
-375 10z m377 -46 c63 -15 118 -44 118 -64 0 -5 -15 -17 -32 -26 -124 -64
-419 -71 -574 -13 -60 23 -73 42 -42 64 86 60 349 79 530 39z m-528 -123 c3
-4 34 -17 68 -27 52 -16 96 -19 248 -19 173 0 190 2 258 26 l72 25 0 -82 c0
-77 -2 -84 -26 -103 -41 -33 -164 -54 -304 -54 -141 0 -224 13 -290 46 l-45
22 -3 88 c-2 79 5 106 22 78z m31 -230 c156 -59 441 -53 598 14 15 6 17 0 17
-64 l0 -71 -165 0 c-152 0 -167 -2 -185 -20 -12 -12 -20 -33 -20 -51 l0 -32
-72 6 c-79 7 -170 30 -205 53 -21 13 -23 22 -23 99 0 47 1 85 3 85 1 0 25 -9
52 -19z m880 -361 l0 -195 -295 0 -295 0 -3 198 -2 197 297 -2 298 -3 0 -195z
m-825 129 c36 -10 86 -18 112 -18 77 -1 78 -3 78 -94 l0 -80 -72 6 c-79 7
-170 30 -205 53 -21 13 -23 23 -23 90 0 75 1 76 23 69 12 -4 51 -15 87 -26z"/>
<path d="M468 339 c-51 -29 -41 -102 15 -117 35 -9 53 -32 44 -56 -10 -25 -46
-20 -57 9 -5 14 -14 25 -19 25 -33 0 -11 -67 26 -76 38 -10 70 4 83 36 10 25
10 34 -4 55 -9 13 -31 28 -49 33 -37 9 -48 41 -21 63 14 12 19 10 39 -15 13
-16 28 -25 34 -22 17 11 13 25 -14 51 -26 27 -49 31 -77 14z"/>
<path d="M620 330 c-16 -16 -20 -33 -20 -95 0 -93 16 -115 85 -115 l45 0 0 95
c0 105 -14 135 -65 135 -14 0 -34 -9 -45 -20z m80 -90 c0 -47 -3 -60 -15 -60
-8 0 -15 -7 -15 -15 0 -8 -4 -15 -8 -15 -21 0 -32 29 -32 81 0 67 19 96 51 79
15 -9 19 -22 19 -70z"/>
<path d="M770 236 l0 -116 66 0 c48 0 65 3 62 13 -3 6 -25 13 -51 15 l-46 3
-3 96 c-2 66 -7 98 -15 101 -10 3 -13 -24 -13 -112z"/>
</g>
</svg>
